PathFileType	4	(X/Y/Z)	./resultDataOpenSim/trcMotMarkerGrf/sub06/qtm-03-02.trc
DataRate	CameraRate	NumFrames	NumMarkers	Units	OrigDataRate	OrigDataStartFrame	OrigNumFrames
250.000000	250.000000	10	24	m	250.000000	252	502
Frame#	Time	L.Toe.Tip			R.Toe.Tip			L.Ankle.Lat			R.Ankle.Lat			L.Ankle.Med			R.Ankle.Med			L.Heel			R.Heel			L.Knee.Lat			R.Knee.Lat			L.Knee.Med			R.Knee.Med			L.Thigh.Upper			R.Thigh.Upper			L.ASIS			R.ASIS			V.Sacral			L.Acromium			R.Acromium			C7			L.Elbow			R.Elbow			L.Wrist.Lat			R.Wrist.Lat
		X1	Y1	Z1	X2	Y2	Z2	X3	Y3	Z3	X4	Y4	Z4	X5	Y5	Z5	X6	Y6	Z6	X7	Y7	Z7	X8	Y8	Z8	X9	Y9	Z9	X10	Y10	Z10	X11	Y11	Z11	X12	Y12	Z12	X13	Y13	Z13	X14	Y14	Z14	X15	Y15	Z15	X16	Y16	Z16	X17	Y17	Z17	X18	Y18	Z18	X19	Y19	Z19	X20	Y20	Z20	X21	Y21	Z21	X22	Y22	Z22	X23	Y23	Z23	X24	Y24	Z24

252	1.004	0.089046464	-0.016126474	-0.044279617	0.76547543	0.10485329	0.1520484	-0.021266812	0.044700601	-0.070109798	0.6292672	0.082432815	0.15634961	-0.017202162	0.060294579	0.01629683	0.65076614	0.11954193	0.076345069	-0.099383268	0.037001336	-0.024720726	0.59720307	0.048793392	0.086576488	0.14222667	0.38064286	-0.084917121	0.51655029	0.45779732	0.17443389	0.12593315	0.38335508	0.035088136	0.51370035	0.43796841	0.046821948	0.25490404	0.7474513	-0.15039078	0.29185969	0.75453657	0.20235662	0.34324402	0.7896634	-0.11136317	0.36705146	0.80742338	0.13213838	0.17112959	0.87106106	0.031643484	0.31772966	1.2845363	-0.16093279	0.29194667	1.2633341	0.20159721	0.23009776	1.3137387	0.013718183	0.36047137	0.96272638	-0.24305523	0.13363445	0.99500721	0.23738147	0.59482544	0.90287363	-0.17051839	0.15576546	0.76575895	0.30817349
253	1.008	0.08908954	-0.016117214	-0.044351246	0.77816327	0.10713039	0.15117429	-0.020379756	0.045629512	-0.070564479	0.64217444	0.082585969	0.15641769	-0.016378873	0.061229325	0.015829379	0.66259448	0.11997425	0.076219062	-0.098692259	0.038770453	-0.025372345	0.61004338	0.048451621	0.087063353	0.14612919	0.3802453	-0.08495859	0.52395261	0.45611193	0.17416972	0.1304201	0.38273026	0.034884816	0.52108027	0.43618387	0.046217361	0.26009504	0.74641033	-0.14975567	0.2996334	0.75267541	0.20267297	0.34922438	0.788452	-0.11154511	0.3741983	0.80573411	0.13172543	0.17813963	0.86979329	0.033177585	0.3244887	1.2829446	-0.16058393	0.29852959	1.2616614	0.20212024	0.23683971	1.3123109	0.0141194	0.36947723	0.96131246	-0.24247708	0.13982894	0.99366148	0.23806944	0.60399082	0.90370894	-0.16895718	0.16144019	0.76431077	0.3087241
254	1.012	0.089133881	-0.016107842	-0.044421376	0.79013935	0.10920184	0.15021127	-0.019451837	0.046612367	-0.071006077	0.65438452	0.082734322	0.15644868	-0.015466208	0.062225417	0.015393794	0.67383648	0.12023516	0.076003301	-0.09794132	0.040591522	-0.026019648	0.62220385	0.047998256	0.08747074	0.15017096	0.37982982	-0.085037488	0.53145521	0.45457218	0.17379028	0.1349409	0.38214282	0.034788388	0.52845906	0.4344961	0.0456375	0.26537673	0.7453772	-0.14901696	0.30749585	0.75082651	0.20300816	0.35522122	0.78724744	-0.11167804	0.3814056	0.8040278	0.13133187	0.18503459	0.86858482	0.034872891	0.33126385	1.2813606	-0.16021683	0.30516658	1.2599878	0.20266775	0.24362436	1.3108938	0.014559744	0.3784451	0.95989432	-0.2418307	0.14601419	0.99234473	0.23887569	0.61309015	0.90444732	-0.16741321	0.16733476	0.7628456	0.30927705
255	1.016	0.089179116	-0.016103246	-0.044485432	0.80142129	0.11098291	0.14918609	-0.018469367	0.047645337	-0.071435516	0.66592231	0.082799347	0.15638308	-0.014462865	0.063281846	0.014981375	0.68449997	0.12030122	0.075706961	-0.097128527	0.042491373	-0.026625088	0.63369352	0.047415152	0.087761292	0.15434578	0.37939801	-0.085123742	0.53906453	0.45317569	0.17330534	0.1395442	0.3815984	0.034741143	0.53583298	0.4329269	0.045077681	0.27076031	0.74433993	-0.14821405	0.31554716	0.74902574	0.20343004	0.36114187	0.78602962	-0.11174943	0.38870198	0.80234966	0.13097597	0.1918307	0.86741933	0.036649655	0.33805476	1.2797889	-0.15982165	0.31186259	1.2583148	0.20323522	0.25045379	1.3094921	0.015040233	0.38739122	0.95848591	-0.24117461	0.1522845	0.99099641	0.23966523	0.62212491	0.90508508	-0.16588773	0.17340879	0.76135864	0.30982504
256	1.02	0.089229813	-0.016101809	-0.044540323	0.81202492	0.11240607	0.14811419	-0.017414612	0.048726124	-0.071851437	0.67678969	0.082727514	0.15618405	-0.013384371	0.064385929	0.014564381	0.69460241	0.12016334	0.075301998	-0.096252545	0.04449307	-0.027165685	0.64451738	0.04670165	0.087890846	0.15863091	0.37895232	-0.085180344	0.54677905	0.45190135	0.17275706	0.14426733	0.38108387	0.034720959	0.54319319	0.43149932	0.044521521	0.27625551	0.74328231	-0.14739858	0.32385065	0.74730708	0.20398111	0.36692655	0.78481769	-0.1117452	0.39617019	0.80076993	0.13070508	0.19862667	0.86626538	0.038361771	0.34486229	1.2782361	-0.15939111	0.3186212	1.2566445	0.2038224	0.25732847	1.3081078	0.015559796	0.39632735	0.95709969	-0.24052214	0.15869183	0.98958151	0.24035419	0.63109609	0.90561852	-0.1643837	0.17953768	0.75983255	0.31035546
257	1.024	0.08929721	-0.016099444	-0.044581104	0.82196743	0.1134207	0.14700205	-0.016274025	0.049852664	-0.072255251	0.68698184	0.082481856	0.15583529	-0.012258035	0.065523503	0.014112543	0.70416381	0.11982174	0.074761963	-0.095303563	0.04658334	-0.027695901	0.65468495	0.045862185	0.087826774	0.16302066	0.37849066	-0.085195838	0.55457715	0.45072093	0.17220241	0.14912644	0.38057799	0.034731542	0.55054402	0.43023591	0.043954636	0.2818694	0.74219177	-0.14659571	0.33234774	0.74568848	0.20463086	0.37265605	0.78361935	-0.11168565	0.40380915	0.79931264	0.13052383	0.20553446	0.86510704	0.039919874	0.35168679	1.2767119	-0.15892175	0.32544243	1.2549828	0.20443292	0.26424376	1.3067394	0.016121286	0.40521869	0.95575498	-0.23982751	0.16520331	0.98811603	0.24094876	0.6400038	0.90604644	-0.16290383	0.18563351	0.75825843	0.31086202
258	1.028	0.08939343	-0.016091763	-0.044604127	0.83126925	0.11399341	0.14585754	-0.015041751	0.051024809	-0.072653659	0.69650572	0.082034372	0.15532963	-0.011101449	0.06669025	0.013613225	0.71319343	0.11928131	0.074079194	-0.094265044	0.048725463	-0.028308111	0.6642089	0.04489953	0.087556652	0.16752872	0.37800837	-0.085178561	0.56240948	0.44960932	0.17169099	0.15412085	0.38006076	0.034780824	0.55789311	0.4291519	0.043377228	0.2876066	0.74106624	-0.14579461	0.34087796	0.74417113	0.20529342	0.37851373	0.7824171	-0.1116226	0.41152862	0.79794489	0.1303905	0.21265498	0.86394665	0.041327623	0.35852696	1.2752262	-0.15841023	0.33232907	1.2533377	0.20507065	0.27119823	1.3053879	0.016732293	0.414	0.95447122	-0.23902618	0.17176284	0.98663125	0.24148862	0.64884527	0.90636892	-0.16144961	0.19174551	0.75665163	0.31135159
259	1.032	0.08951886	-0.016075628	-0.044618294	0.83995018	0.1141109	0.14469048	-0.013723924	0.05224656	-0.073066075	0.70538611	0.081367396	0.15466222	-0.0098942203	0.067895057	0.013080282	0.72168839	0.11854224	0.073255468	-0.093126	0.050918206	-0.029023183	0.67310023	0.043814303	0.087082968	0.17218169	0.37749972	-0.085134794	0.57020861	0.44854597	0.1712363	0.15924344	0.37951445	0.034868902	0.5652204	0.42824501	0.042818842	0.29347044	0.73991498	-0.14498031	0.34932431	0.74276576	0.20591147	0.3846061	0.7811984	-0.1115858	0.4192511	0.79662565	0.13026923	0.2200678	0.86278302	0.042610173	0.36537825	1.2737878	-0.15785299	0.33928996	1.2517156	0.20573868	0.2781946	1.3040592	0.017400567	0.42265546	0.95324347	-0.23809432	0.17837411	0.9851426	0.24201149	0.65761533	0.90658536	-0.16002022	0.19800523	0.7550408	0.31183781
260	1.036	0.089660357	-0.016050492	-0.04464402	0.84802881	0.11378127	0.14350378	-0.012334295	0.053523051	-0.073519328	0.71365166	0.080471161	0.15383135	-0.0085858404	0.069153871	0.012540287	0.72964262	0.11759763	0.072293329	-0.091877332	0.053210161	-0.029772008	0.68136405	0.042603712	0.086414943	0.1770033	0.37696048	-0.085065519	0.57792367	0.44752189	0.1707939	0.16449173	0.37892637	0.034987992	0.57245653	0.42749071	0.042349976	0.29945984	0.73874964	-0.14415388	0.35767654	0.74150209	0.20648832	0.39090101	0.77997407	-0.11156019	0.42695539	0.79533292	0.13015035	0.22774797	0.86161913	0.04375941	0.37223434	1.2724049	-0.15724874	0.34633091	1.2501223	0.2064397	0.2852325	1.3027573	0.018130989	0.43123745	0.95204468	-0.23706308	0.18510854	0.98365186	0.24254719	0.66631177	0.90669713	-0.1586091	0.20449786	0.75344657	0.31232862
261	1.04	0.089806504	-0.016016736	-0.044695434	0.85552563	0.11302842	0.14228303	-0.010881296	0.054856532	-0.07402417	0.72131881	0.079339598	0.15284161	-0.0071431896	0.070476834	0.012005243	0.73705329	0.116442	0.071197824	-0.090504617	0.055640879	-0.030492641	0.68900037	0.041258471	0.085566238	0.18200121	0.37638778	-0.084975129	0.58554421	0.44653917	0.17028509	0.16987241	0.37828893	0.035124711	0.57952312	0.42685098	0.042047433	0.30557032	0.73757226	-0.14332119	0.36596988	0.74040635	0.20705345	0.39732787	0.77876492	-0.11151506	0.43466694	0.79406617	0.1300461	0.23550552	0.86049505	0.044750907	0.37909309	1.2710837	-0.15659551	0.35345004	1.2485646	0.20717589	0.2923086	1.3014808	0.018925967	0.43979245	0.95086734	-0.23597959	0.19202431	0.98216217	0.24311269	0.67493759	0.90671112	-0.15720691	0.21122017	0.75187483	0.31282201
